<?xml version="1.0" encoding="UTF-8"?>
<svg xmlns="http://www.w3.org/2000/svg" viewBox="0 0 397.32 397.32">
  <defs>
    <style>
      .cls-1 {
        fill: #f9f9f9;
      }

      .cls-2 {
        fill: #cb4a68;
      }

      .cls-1, .cls-2 {
        stroke-width: 0px;
      }
    </style>
  </defs>
  <g>
    <path class="cls-1" d="m258.46,160.69c.03,8.4-2.21,16.65-6.48,23.89-2.05,3.49-4.54,6.7-7.4,9.58-8.85,8.93-20.92,13.94-33.49,13.91h-.35v.15h-43.47c-5.17-.04-9.4,4.11-9.45,9.29v.15c0,1.28.24,2.55.73,3.73.93,2.29,2.74,4.11,5.02,5.06,1.17.49,2.43.74,3.69.72h18.97c3.8-.02,7.57.73,11.07,2.21,6.83,2.87,12.26,8.3,15.13,15.13,2.95,7.07,2.95,15.03,0,22.1-1.43,3.37-3.49,6.43-6.08,9.02-2.6,2.59-5.67,4.66-9.05,6.11-3.5,1.51-7.27,2.27-11.07,2.25h-42.09v-18.96h42.09c5.22,0,9.45-4.22,9.45-9.44,0-5.22-4.22-9.45-9.44-9.46h-18.98c-3.79.03-7.55-.74-11.03-2.24-6.8-2.92-12.22-8.35-15.13-15.17-1.51-3.49-2.27-7.26-2.25-11.07-.03-3.79.74-7.55,2.25-11.03,2.92-6.79,8.34-12.21,15.13-15.13,3.49-1.51,7.24-2.27,11.04-2.25h40.84l2.98-.16c3.8.03,7.57-.73,11.07-2.21,6.83-2.86,12.26-8.3,15.13-15.13,1.48-3.5,2.23-7.26,2.21-11.06.02-3.79-.73-7.55-2.21-11.03-1.43-3.37-3.5-6.43-6.08-9.02-2.6-2.6-5.67-4.67-9.05-6.12-3.49-1.51-7.26-2.27-11.07-2.24h-9.45v52.29h-19.1v-71.26h28.54c4.26-.02,8.49.55,12.59,1.68,7.92,2.19,15.12,6.4,20.91,12.22,2.86,2.88,5.34,6.1,7.39,9.58,4.27,7.24,6.5,15.49,6.48,23.89Z"/>
    <path class="cls-2" d="m252.3,270.29c.01,1.61-.31,3.21-.96,4.69-.62,1.42-1.5,2.71-2.61,3.8-1.12,1.09-2.43,1.96-3.87,2.58-3.02,1.28-6.43,1.28-9.45,0-2.88-1.22-5.18-3.5-6.41-6.38-1.28-2.99-1.28-6.36,0-9.35,1.22-2.89,3.52-5.19,6.41-6.41,3.02-1.28,6.43-1.28,9.45,0,1.44.61,2.75,1.49,3.87,2.58,1.11,1.1,2,2.4,2.61,3.83.64,1.47.96,3.06.96,4.66Z"/>
  </g>
</svg>